# xmcd CD database file
#
# Track frame offsets:
#	150
#	18693
#	47837
#
# Disc length: 1167 seconds
#
# Revision: 0
# Processed by: cddbd v1.5.1PL0 Copyright (c) Steve Scherf et al.
# Submitted via: CDex 1.51
#
DISCID=21048d03
DTITLE=Aaliya - Miss You [CDS)
DYEAR=2003
DGENRE=R&B
TTITLE0=Miss You
TTITLE1=Miss You (Remix) Featuring. Jay-Z
TTITLE2=Deta Track
EXTD=YEAR: 2003
EXTT0=
EXTT1=
EXTT2=
PLAYORDER=
